<?xml version="1.0" encoding="UTF-8" standalone="no"?>
<!-- Created with Inkscape (http://www.inkscape.org/) -->

<svg
   version="1.1"
   id="svg2"
   width="1000"
   height="666.66669"
   viewBox="0 0 1000 666.66669"
   sodipodi:docname="9121423.eps"
   xmlns:inkscape="http://www.inkscape.org/namespaces/inkscape"
   xmlns:sodipodi="http://sodipodi.sourceforge.net/DTD/sodipodi-0.dtd"
   xmlns="http://www.w3.org/2000/svg"
   xmlns:svg="http://www.w3.org/2000/svg">
  <defs
     id="defs6" />
  <sodipodi:namedview
     id="namedview4"
     pagecolor="#ffffff"
     bordercolor="#000000"
     borderopacity="0.25"
     inkscape:showpageshadow="2"
     inkscape:pageopacity="0.0"
     inkscape:pagecheckerboard="0"
     inkscape:deskcolor="#d1d1d1" />
  <g
     id="g8"
     inkscape:groupmode="layer"
     inkscape:label="ink_ext_XXXXXX"
     transform="matrix(1.3333333,0,0,-1.3333333,0,666.66667)">
    <g
       id="g10"
       transform="scale(0.1)">
      <path
         d="M 0,5000 H 7500 V 0 H 0 v 5000"
         style="fill:#e8edf5;fill-opacity:1;fill-rule:nonzero;stroke:none"
         id="path12" />
      <path
         d="m 5915.7,1990.91 -70.52,45.38 67.93,-24.75 -95.54,98.15 132.17,-76.68 88.7,-108.66 z m -340.74,243.97 -29.93,17.49 -34.58,61.52 -55.23,10.38 18.6,-56.31 -36.63,14.89 -49.62,-25.83 38.68,47.57 -7.65,42.37 103.73,39.77 155.96,-243.28 z m -23.64,565.58 41.27,42.78 -41.27,-88.98 z m -1489.94,22.14 -104.84,55.22 -50.85,34.99 -39.63,-8.2 -65.74,57.82 -44.42,16.53 -4.1,27.07 -20.1,27.47 57.55,112.08 -0.55,94.03 54.81,57.27 -28.71,-74.08 20.92,-34.72 42.64,-106.33 28.43,-11.35 93.08,-103.06 6.42,-37.45 76.82,-79.95 102.64,-104.15 z m -380.38,421.38 -39.23,71.9 -40.46,42.23 -18.31,-30.2 8.47,-78.05 -71.62,62.46 -47.56,-104.56 -4.38,40.6 38.82,85.97 0.55,50.98 -61.24,88.02 10.4,77.64 59.31,113.71 82.69,-82.82 3.28,-49.48 42.1,-50.85 9.84,-87.88 43.46,-72.58 z m 1486.79,-336.64 27.61,76.82 28.97,40.32 38.41,-7.93 z m 1110.38,-587.86 -17.08,0.14 -53.44,0.68 -147.07,178.1 -45.51,-3.69 -138.32,87.06 -73.95,-3.28 -189.29,177 31.57,75.86 -96.36,112.08 -92.95,13.94 -6.69,32.39 -46.34,14.49 -78.73,159.23 -55.35,148.71 -17.08,91.3 -99.78,49.34 -19,21.18 -53.98,60.42 -182.34,-201.2 -125.6,-63.96 -130.53,-179.87 76.12,-141.33 246.85,-190.12 20.77,-46.88 65.47,-36.49 57.41,-118.5 102.79,-54.81 130.93,-142.83 -198.04,103.19 9.42,-31.57 28.85,-68.34 -66.15,52.22 -66.16,16.12 100.05,-188.48 -163.88,156.5 -77.36,122.6 -51.26,39.63 -2.46,-41.55 -238.23,260.92 -77.08,19 -86.11,65.88 -82.28,140.92 -89.53,95.4 -50.84,-4.37 -115.5,85.29 57.82,-111.26 -107.57,74.49 19.27,-63.56 -156.22,83.51 9.02,65.88 -25.01,58.64 -17.49,-6.7 24.59,81.19 -28.01,-27.75 -5.61,58.23 -39.09,13.53 31.3,9.57 -3.42,113.58 -130.8,90.75 -10.52,-73.94 -39.64,-51.12 13.67,116.04 27.74,47.15 -29.24,22.15 -29.8,-34.58 -77.09,110.84 58.91,169.21 -23.51,-12.3 3.15,88.85 -31.99,-28.99 -49.61,-97.86 -150.62,-200.09 -120,-84.2 -78.05,-167.98 v -0.13 l -11.34,-24.47 -123.42,-202.29 -180.15,-144.74 -81.46,-109.89 128.61,-111.94 205.98,94.18 c 49.89,-37.87 99.64,-75.73 149.53,-113.59 l 515.69,-377.78 255.86,-136.4 145.7,3.28 503.52,-389.27 167.98,-129.84 47.16,19 36.63,-33.49 105.93,-38.27 98.13,-56.31 177.14,150.89 62.33,135.18 153.62,-226.48 45.52,21.19 45.51,-59.73 105.24,84.05 53.45,93.36 36.9,-3.83 34.44,40.05 47.97,-16.54 96.5,-144.47 103.19,-64.38 50.17,-70.25 37.31,75.45 31.3,-28.57 57.13,-3.96 32.53,-43.33 19.55,-3.42 3.41,25.57 29.39,-44.43 20.64,7.66 561.33,209.94 -697.06,512.4"
         style="fill:#29354d;fill-opacity:1;fill-rule:nonzero;stroke:none"
         id="path14" />
      <path
         d="m 6393.26,1589.48 -465.81,-174.13 -292.9,-48.38 -435.73,-101.69 -539.75,-163.74 -526.21,115.22 -181.65,-86.38 -116.03,113.58 -718.67,-287.44 -924.9,449.68 -453.91,-118.78 -176.73,81.6 -152.81,-46.74 -137.23,79.27 -205.15,-59.19 -136.405,71.76 -152.398,-32.53 c 0,0 -243.973,24.33 -239.598,27.75 52.894,22.96 106.336,45.24 160.055,66.42 l 46.058,98.97 288.388,189.7 165.25,261.06 265.84,313.54 131.76,-1.91 82.28,50.84 322.15,359.19 76.13,-0.13 335,331.72 22.01,-548.22 111.8,-421.65 229.62,-188.08 -48.79,356.6 -111.94,100.6 -145.84,247.25 219.51,-188.21 -151.86,324.21 124.79,-116.87 -58.22,143.38 -84.74,129.3 58.77,-39.23 37.04,21.46 25.56,-10.66 41,23.92 89.39,52.07 36.9,-178.5 51.26,-47.98 82,93.49 205.98,94.18 c -2.19,-4.93 -2.87,-207.62 -2.87,-207.62 l 257.37,-314.5 32.66,-187.39 0.41,-2.45 -49.06,-169.62 224.29,-157.74 -8.07,176.32 -56.86,52.07 -95.26,177.69 137.91,-122.46 -134.08,350.99 -13.94,100.73 265.02,-266.53 127.11,-131.75 244.79,-177.41 -72.03,188.34 126.98,9.3 68.2,-17.91 308.08,-268.85 -80.65,141.06 290.3,-186.03 167.98,-129.84 47.16,19 36.63,-33.49 105.93,-38.27 98.13,-56.31 177.14,150.89 62.33,135.18 153.62,-226.48 45.52,21.19 45.51,-59.73 105.24,84.05 53.45,93.36 36.9,-3.83 34.44,40.05 47.97,-16.54 96.5,-144.47 103.19,-64.38 50.17,-70.25 37.31,75.45 31.3,-28.57 57.13,-3.96 32.53,-43.33 19.55,-3.42 3.41,25.57 29.39,-44.43"
         style="fill:#1c283e;fill-opacity:1;fill-rule:nonzero;stroke:none"
         id="path16" />
      <path
         d="m 4256.55,3175.1 -209.94,200.64 -45.23,105.52 -87.76,81.46 -52.48,102.92 88.16,-62.6 -30.35,77.5 108.94,-81.6 85.56,-113.17 143.38,-123.42 z m 924.37,-813.38 -28.85,68.34 -9.42,31.57 198.04,-103.19 -130.93,142.83 -102.79,54.81 -57.41,118.5 -65.47,36.49 -20.77,46.88 -246.85,190.12 -76.12,141.33 -99.5,185.06 -72.03,82.83 -75.59,159.23 -180.01,130.53 -99.91,134.22 -87.2,137.64 -213.49,145.97 -3.83,-60.27 75.17,-45.11 6.57,-90.21 8.75,-37.18 25.69,-40.04 -39.91,3.14 -9.71,36.36 -119.32,129.16 -49.2,13.53 -0.41,0.13 -21.05,5.88 -48.79,23.93 -3.15,-88.85 23.51,12.3 -58.91,-169.21 77.09,-110.84 29.8,34.58 29.24,-22.15 -27.74,-47.15 -13.67,-116.04 39.64,51.12 10.52,73.94 130.8,-90.75 3.42,-113.58 -31.3,-9.57 39.09,-13.53 5.61,-58.23 28.01,27.75 -24.59,-81.19 17.49,6.7 25.01,-58.64 -9.02,-65.88 156.22,-83.51 -19.27,63.56 107.57,-74.49 -57.82,111.26 115.5,-85.29 50.84,4.37 89.53,-95.4 82.28,-140.92 86.11,-65.88 77.08,-19 238.23,-260.92 2.46,41.55 51.26,-39.63 77.36,-122.6 163.88,-156.5 -100.05,188.48 66.16,-16.12 66.15,-52.22"
         style="fill:#ffffff;fill-opacity:1;fill-rule:nonzero;stroke:none"
         id="path18" />
      <path
         d="m 6261.09,2319.62 -53.44,0.68 -147.07,178.1 -45.51,-3.69 -138.32,87.06 -73.95,-3.28 -189.29,177 31.57,75.86 -96.36,112.08 -92.95,13.94 -6.69,32.39 -46.34,14.49 -78.73,159.23 -55.35,148.71 -17.08,91.3 -99.78,49.34 -19,21.18 69.85,46.88 239.6,-191.89 213.48,-360.7 74.36,-6.15 155,-240.28 114.39,-93.35 72.58,-66.29 189.03,-242.61"
         style="fill:#ffffff;fill-opacity:1;fill-rule:nonzero;stroke:none"
         id="path20" />
      <path
         d="m 3924.97,3792.07 -39.91,3.14 -9.71,36.36 -119.32,129.16 -49.2,13.53 105.79,90.62 -3.83,-60.27 75.17,-45.11 6.57,-90.21 8.75,-37.18 25.69,-40.04"
         style="fill:#29354d;fill-opacity:1;fill-rule:nonzero;stroke:none"
         id="path22" />
      <path
         d="m 3697.12,3321.07 -16.12,-77.09 -39.23,71.9 -40.46,42.23 -18.31,-30.2 8.47,-78.05 -71.62,62.46 -47.56,-104.56 -4.38,40.6 38.82,85.97 0.55,50.98 -61.24,88.02 10.4,77.64 59.31,113.71 82.69,-82.82 3.28,-49.48 42.1,-50.85 9.84,-87.88 43.46,-72.58"
         style="fill:#e8edf5;fill-opacity:1;fill-rule:nonzero;stroke:none"
         id="path24" />
      <path
         d="m 4185.75,2745.79 -124.37,76.81 -104.84,55.22 -50.85,34.99 -39.63,-8.2 -65.74,57.82 -44.42,16.53 -4.1,27.07 -20.1,27.47 57.55,112.08 -0.55,94.03 54.81,57.27 -28.71,-74.08 20.92,-34.72 42.64,-106.33 28.43,-11.35 93.08,-103.06 6.42,-37.45 76.82,-79.95 102.64,-104.15"
         style="fill:#e8edf5;fill-opacity:1;fill-rule:nonzero;stroke:none"
         id="path26" />
      <path
         d="m 4256.83,3362.35 -0.28,-187.25 -209.94,200.64 -45.23,105.52 -87.76,81.46 -52.48,102.92 88.16,-62.6 -30.35,77.5 108.94,-81.6 85.56,-113.17 143.38,-123.42"
         style="fill:#29354d;fill-opacity:1;fill-rule:nonzero;stroke:none"
         id="path28" />
      <path
         d="m 4714.83,1912.04 -503.52,389.27 -145.7,-3.28 -255.86,136.4 -515.69,377.78 c -49.89,37.86 -99.64,75.72 -149.53,113.59 -2.19,-4.93 -2.87,-207.62 -2.87,-207.62 l 257.37,-314.5 32.66,-187.39 0.41,-2.45 -49.06,-169.62 224.29,-157.74 -8.07,176.32 -56.86,52.07 -95.26,177.69 137.91,-122.46 -134.08,350.99 -13.94,100.73 265.02,-266.53 127.11,-131.75 244.79,-177.41 -72.03,188.34 126.98,9.3 68.2,-17.91 308.08,-268.85 -80.65,141.06 290.3,-186.03"
         style="fill:#ffffff;fill-opacity:1;fill-rule:nonzero;stroke:none"
         id="path30" />
      <path
         d="m 5678.29,2143.45 -103.33,91.43 -29.93,17.49 -34.58,61.52 -55.23,10.38 18.6,-56.31 -36.63,14.89 -49.62,-25.83 38.68,47.57 -7.65,42.37 103.73,39.77 155.96,-243.28"
         style="fill:#ffffff;fill-opacity:1;fill-rule:nonzero;stroke:none"
         id="path32" />
      <path
         d="m 6038.44,1924.35 -122.74,66.56 -70.52,45.38 67.93,-24.75 -95.54,98.15 132.17,-76.68 88.7,-108.66"
         style="fill:#ffffff;fill-opacity:1;fill-rule:nonzero;stroke:none"
         id="path34" />
      <path
         d="m 5592.59,2843.24 -41.27,-88.98 v 46.2 z"
         style="fill:#ffffff;fill-opacity:1;fill-rule:nonzero;stroke:none"
         id="path36" />
      <path
         d="m 5262.78,3016.55 -94.99,-109.21 27.61,76.82 28.97,40.32 38.41,-7.93"
         style="fill:#ffffff;fill-opacity:1;fill-rule:nonzero;stroke:none"
         id="path38" />
      <path
         d="m 2724.93,2277.39 -111.94,100.6 -145.84,247.25 219.51,-188.21 -151.86,324.21 124.79,-116.87 -58.22,143.38 -84.74,129.3 58.77,-39.23 37.04,21.46 25.56,-10.66 41,23.92 -268.71,166.2 22.01,-548.22 111.8,-421.65 229.62,-188.08 -48.79,356.6"
         style="fill:#ffffff;fill-opacity:1;fill-rule:nonzero;stroke:none"
         id="path40" />
      <path
         d="m 3206.31,3424.95 -11.34,-24.47 -123.42,-202.29 -180.15,-144.74 -81.46,-109.89 128.61,-111.94 -82,-93.49 -51.26,47.98 -36.9,178.5 129.98,189.57 307.94,270.77"
         style="fill:#ffffff;fill-opacity:1;fill-rule:nonzero;stroke:none"
         id="path42" />
    </g>
  </g>
</svg>
